<?xml version="1.0" encoding="UTF-8" standalone="no"?>
<!DOCTYPE svg PUBLIC "-//W3C//DTD SVG 1.1//EN"
 "http://www.w3.org/Graphics/SVG/1.1/DTD/svg11.dtd">
<!-- Generated by graphviz version 2.38.0 (20140413.2041)
 -->
<!-- Title: %3 Pages: 1 -->
<svg width="1008pt" height="488pt"
 viewBox="0.00 0.00 1008.00 488.41" xmlns="http://www.w3.org/2000/svg" xmlns:xlink="http://www.w3.org/1999/xlink">
<g id="graph0" class="graph" transform="scale(0.551948 0.551948) rotate(0) translate(4 880.878)">
<title>%3</title>
<polygon fill="white" stroke="none" points="-4,4 -4,-880.878 1822.26,-880.878 1822.26,4 -4,4"/>
<!-- github.com/go&#45;modules&#45;by&#45;example/\nlistmodwhygraph -->
<g id="node1" class="node"><title>github.com/go&#45;modules&#45;by&#45;example/\nlistmodwhygraph</title>
<polygon fill="#e94762" stroke="none" points="1171.17,-544.593 710.174,-544.593 710.174,-484.593 1171.17,-484.593 1171.17,-544.593"/>
<text text-anchor="middle" x="940.674" y="-521.393" font-family="Helvetica,sans-Serif" font-size="24.00">github.com/go&#45;modules&#45;by&#45;example/</text>
<text text-anchor="middle" x="940.674" y="-495.393" font-family="Helvetica,sans-Serif" font-size="24.00">listmodwhygraph</text>
</g>
<!-- github.com/go&#45;modules&#45;by&#45;example/\nincomplete -->
<g id="node2" class="node"><title>github.com/go&#45;modules&#45;by&#45;example/\nincomplete</title>
<text text-anchor="middle" x="851.037" y="-755.974" font-family="Helvetica,sans-Serif" font-size="24.00">github.com/go&#45;modules&#45;by&#45;example/</text>
<text text-anchor="middle" x="851.037" y="-729.974" font-family="Helvetica,sans-Serif" font-size="24.00">incomplete</text>
</g>
<!-- github.com/go&#45;modules&#45;by&#45;example/\nlistmodwhygraph&#45;&gt;github.com/go&#45;modules&#45;by&#45;example/\nincomplete -->
<g id="edge1" class="edge"><title>github.com/go&#45;modules&#45;by&#45;example/\nlistmodwhygraph&#45;&gt;github.com/go&#45;modules&#45;by&#45;example/\nincomplete</title>
<path fill="none" stroke="black" d="M929.139,-544.78C913.07,-586.831 883.926,-663.104 866.141,-709.645"/>
<polygon fill="black" stroke="black" points="862.828,-708.512 862.528,-719.102 869.367,-711.01 862.828,-708.512"/>
</g>
<!-- github.com/kr/\npretty -->
<g id="node3" class="node"><title>github.com/kr/\npretty</title>
<text text-anchor="middle" x="605.64" y="-587.374" font-family="Helvetica,sans-Serif" font-size="24.00">github.com/kr/</text>
<text text-anchor="middle" x="605.64" y="-561.374" font-family="Helvetica,sans-Serif" font-size="24.00">pretty</text>
</g>
<!-- github.com/go&#45;modules&#45;by&#45;example/\nlistmodwhygraph&#45;&gt;github.com/kr/\npretty -->
<g id="edge2" class="edge"><title>github.com/go&#45;modules&#45;by&#45;example/\nlistmodwhygraph&#45;&gt;github.com/kr/\npretty</title>
<path fill="none" stroke="black" d="M787.863,-544.687C762.494,-549.683 736.671,-554.769 712.746,-559.481"/>
<polygon fill="black" stroke="black" points="711.751,-556.109 702.616,-561.476 713.104,-562.977 711.751,-556.109"/>
</g>
<!-- github.com/sirupsen/\nlogrus -->
<g id="node4" class="node"><title>github.com/sirupsen/\nlogrus</title>
<text text-anchor="middle" x="1380.52" y="-553.499" font-family="Helvetica,sans-Serif" font-size="24.00">github.com/sirupsen/</text>
<text text-anchor="middle" x="1380.52" y="-527.499" font-family="Helvetica,sans-Serif" font-size="24.00">logrus</text>
</g>
<!-- github.com/go&#45;modules&#45;by&#45;example/\nlistmodwhygraph&#45;&gt;github.com/sirupsen/\nlogrus -->
<g id="edge3" class="edge"><title>github.com/go&#45;modules&#45;by&#45;example/\nlistmodwhygraph&#45;&gt;github.com/sirupsen/\nlogrus</title>
<path fill="none" stroke="black" d="M1171.22,-531.422C1192.9,-533.004 1214.44,-534.576 1235,-536.077"/>
<polygon fill="black" stroke="black" points="1234.78,-539.57 1245.01,-536.808 1235.29,-532.589 1234.78,-539.57"/>
</g>
<!-- golang.org/x/tools -->
<g id="node5" class="node"><title>golang.org/x/tools</title>
<text text-anchor="middle" x="797.339" y="-234.596" font-family="Helvetica,sans-Serif" font-size="24.00">golang.org/x/tools</text>
</g>
<!-- github.com/go&#45;modules&#45;by&#45;example/\nlistmodwhygraph&#45;&gt;golang.org/x/tools -->
<g id="edge4" class="edge"><title>github.com/go&#45;modules&#45;by&#45;example/\nlistmodwhygraph&#45;&gt;golang.org/x/tools</title>
<path fill="none" stroke="black" d="M924.924,-484.509C896.786,-430.76 838.314,-319.067 811.424,-267.702"/>
<polygon fill="black" stroke="black" points="814.524,-266.076 806.785,-258.84 808.323,-269.323 814.524,-266.076"/>
</g>
<!-- github.com/kr/\ntext -->
<g id="node6" class="node"><title>github.com/kr/\ntext</title>
<text text-anchor="middle" x="328.266" y="-658.319" font-family="Helvetica,sans-Serif" font-size="24.00">github.com/kr/</text>
<text text-anchor="middle" x="328.266" y="-632.319" font-family="Helvetica,sans-Serif" font-size="24.00">text</text>
</g>
<!-- github.com/kr/\npretty&#45;&gt;github.com/kr/\ntext -->
<g id="edge5" class="edge"><title>github.com/kr/\npretty&#45;&gt;github.com/kr/\ntext</title>
<path fill="none" stroke="black" d="M509.018,-605.287C485.107,-611.403 459.355,-617.99 434.993,-624.221"/>
<polygon fill="black" stroke="black" points="433.832,-620.905 425.012,-626.774 435.567,-627.687 433.832,-620.905"/>
</g>
<!-- github.com/davecgh/\ngo&#45;spew -->
<g id="node8" class="node"><title>github.com/davecgh/\ngo&#45;spew</title>
<text text-anchor="middle" x="1682.26" y="-574.2" font-family="Helvetica,sans-Serif" font-size="24.00">github.com/davecgh/</text>
<text text-anchor="middle" x="1682.26" y="-548.2" font-family="Helvetica,sans-Serif" font-size="24.00">go&#45;spew</text>
</g>
<!-- github.com/sirupsen/\nlogrus&#45;&gt;github.com/davecgh/\ngo&#45;spew -->
<g id="edge7" class="edge"><title>github.com/sirupsen/\nlogrus&#45;&gt;github.com/davecgh/\ngo&#45;spew</title>
<path fill="none" stroke="black" d="M1516.38,-556.02C1522.85,-556.464 1529.35,-556.91 1535.85,-557.355"/>
<polygon fill="black" stroke="black" points="1535.82,-560.861 1546.04,-558.054 1536.3,-553.878 1535.82,-560.861"/>
</g>
<!-- github.com/konsorten/\ngo&#45;windows&#45;terminal&#45;sequences -->
<g id="node9" class="node"><title>github.com/konsorten/\ngo&#45;windows&#45;terminal&#45;sequences</title>
<text text-anchor="middle" x="1407.99" y="-853.678" font-family="Helvetica,sans-Serif" font-size="24.00">github.com/konsorten/</text>
<text text-anchor="middle" x="1407.99" y="-827.678" font-family="Helvetica,sans-Serif" font-size="24.00">go&#45;windows&#45;terminal&#45;sequences</text>
</g>
<!-- github.com/sirupsen/\nlogrus&#45;&gt;github.com/konsorten/\ngo&#45;windows&#45;terminal&#45;sequences -->
<g id="edge8" class="edge"><title>github.com/sirupsen/\nlogrus&#45;&gt;github.com/konsorten/\ngo&#45;windows&#45;terminal&#45;sequences</title>
<path fill="none" stroke="black" d="M1383.28,-576.856C1388.26,-631.246 1398.74,-745.768 1404.31,-806.723"/>
<polygon fill="black" stroke="black" points="1400.83,-807.102 1405.23,-816.742 1407.81,-806.464 1400.83,-807.102"/>
</g>
<!-- github.com/pmezard/\ngo&#45;difflib -->
<g id="node10" class="node"><title>github.com/pmezard/\ngo&#45;difflib</title>
<text text-anchor="middle" x="1597.83" y="-760.243" font-family="Helvetica,sans-Serif" font-size="24.00">github.com/pmezard/</text>
<text text-anchor="middle" x="1597.83" y="-734.243" font-family="Helvetica,sans-Serif" font-size="24.00">go&#45;difflib</text>
</g>
<!-- github.com/sirupsen/\nlogrus&#45;&gt;github.com/pmezard/\ngo&#45;difflib -->
<g id="edge9" class="edge"><title>github.com/sirupsen/\nlogrus&#45;&gt;github.com/pmezard/\ngo&#45;difflib</title>
<path fill="none" stroke="black" d="M1412.12,-576.761C1450.98,-613.738 1516.95,-676.499 1558.91,-716.412"/>
<polygon fill="black" stroke="black" points="1556.53,-718.987 1566.19,-723.344 1561.36,-713.916 1556.53,-718.987"/>
</g>
<!-- github.com/stretchr/\nobjx -->
<g id="node11" class="node"><title>github.com/stretchr/\nobjx</title>
<text text-anchor="middle" x="1222.77" y="-735.9" font-family="Helvetica,sans-Serif" font-size="24.00">github.com/stretchr/</text>
<text text-anchor="middle" x="1222.77" y="-709.9" font-family="Helvetica,sans-Serif" font-size="24.00">objx</text>
</g>
<!-- github.com/sirupsen/\nlogrus&#45;&gt;github.com/stretchr/\nobjx -->
<g id="edge10" class="edge"><title>github.com/sirupsen/\nlogrus&#45;&gt;github.com/stretchr/\nobjx</title>
<path fill="none" stroke="black" d="M1354.47,-576.819C1327.41,-608.106 1285,-657.145 1255.65,-691.082"/>
<polygon fill="black" stroke="black" points="1252.75,-689.082 1248.86,-698.936 1258.05,-693.662 1252.75,-689.082"/>
</g>
<!-- github.com/stretchr/\ntestify -->
<g id="node12" class="node"><title>github.com/stretchr/\ntestify</title>
<text text-anchor="middle" x="1623.42" y="-377.209" font-family="Helvetica,sans-Serif" font-size="24.00">github.com/stretchr/</text>
<text text-anchor="middle" x="1623.42" y="-351.209" font-family="Helvetica,sans-Serif" font-size="24.00">testify</text>
</g>
<!-- github.com/sirupsen/\nlogrus&#45;&gt;github.com/stretchr/\ntestify -->
<g id="edge11" class="edge"><title>github.com/sirupsen/\nlogrus&#45;&gt;github.com/stretchr/\ntestify</title>
<path fill="none" stroke="black" d="M1422,-516.594C1463.97,-486.135 1528.87,-439.033 1573.6,-406.569"/>
<polygon fill="black" stroke="black" points="1575.67,-409.391 1581.71,-400.685 1571.56,-403.726 1575.67,-409.391"/>
</g>
<!-- golang.org/x/crypto -->
<g id="node13" class="node"><title>golang.org/x/crypto</title>
<text text-anchor="middle" x="1445.63" y="-249.3" font-family="Helvetica,sans-Serif" font-size="24.00">golang.org/x/crypto</text>
</g>
<!-- github.com/sirupsen/\nlogrus&#45;&gt;golang.org/x/crypto -->
<g id="edge12" class="edge"><title>github.com/sirupsen/\nlogrus&#45;&gt;golang.org/x/crypto</title>
<path fill="none" stroke="black" d="M1387.24,-516.632C1399.88,-460.096 1427.03,-338.697 1439.34,-283.657"/>
<polygon fill="black" stroke="black" points="1442.83,-284.096 1441.59,-273.573 1436,-282.568 1442.83,-284.096"/>
</g>
<!-- golang.org/x/sys -->
<g id="node14" class="node"><title>golang.org/x/sys</title>
<text text-anchor="middle" x="1242.34" y="-341.038" font-family="Helvetica,sans-Serif" font-size="24.00">golang.org/x/sys</text>
</g>
<!-- github.com/sirupsen/\nlogrus&#45;&gt;golang.org/x/sys -->
<g id="edge13" class="edge"><title>github.com/sirupsen/\nlogrus&#45;&gt;golang.org/x/sys</title>
<path fill="none" stroke="black" d="M1359.53,-516.405C1332.55,-477.46 1286.15,-410.471 1260.57,-373.557"/>
<polygon fill="black" stroke="black" points="1263.42,-371.515 1254.84,-365.288 1257.66,-375.502 1263.42,-371.515"/>
</g>
<!-- golang.org/x/net -->
<g id="node15" class="node"><title>golang.org/x/net</title>
<text text-anchor="middle" x="681.426" y="-11.8" font-family="Helvetica,sans-Serif" font-size="24.00">golang.org/x/net</text>
</g>
<!-- golang.org/x/tools&#45;&gt;golang.org/x/net -->
<g id="edge14" class="edge"><title>golang.org/x/tools&#45;&gt;golang.org/x/net</title>
<path fill="none" stroke="black" d="M787.853,-222.563C767.511,-183.462 719.596,-91.3652 695.616,-45.2733"/>
<polygon fill="black" stroke="black" points="698.601,-43.4276 690.88,-36.1718 692.391,-46.6584 698.601,-43.4276"/>
</g>
<!-- github.com/kr/\npty -->
<g id="node7" class="node"><title>github.com/kr/\npty</title>
<text text-anchor="middle" x="96.5" y="-719.806" font-family="Helvetica,sans-Serif" font-size="24.00">github.com/kr/</text>
<text text-anchor="middle" x="96.5" y="-693.806" font-family="Helvetica,sans-Serif" font-size="24.00">pty</text>
</g>
<!-- github.com/kr/\ntext&#45;&gt;github.com/kr/\npty -->
<g id="edge6" class="edge"><title>github.com/kr/\ntext&#45;&gt;github.com/kr/\npty</title>
<path fill="none" stroke="black" d="M231.654,-677.15C222.252,-679.645 212.675,-682.185 203.18,-684.704"/>
<polygon fill="black" stroke="black" points="202.096,-681.371 193.327,-687.318 203.891,-688.137 202.096,-681.371"/>
</g>
</g>
</svg>
